HIERARCHY
ROOT Hips
{
	OFFSET 0.000000 0.000000 0.000000
	CHANNELS 6 Xposition Yposition Zposition Zrotation Yrotation Xrotation 
	JOINT LeftUpLeg_virtual
	{
		OFFSET 0.000000 0.000000 0.000000
		CHANNELS 3 Zrotation Yrotation Xrotation
		JOINT LeftUpLeg
		{
			OFFSET 8.479694 -4.795517 -0.379053
			CHANNELS 3 Zrotation Yrotation Xrotation
			JOINT LeftLeg
			{
				OFFSET 0.485052 -32.551468 0.112863
				CHANNELS 3 Zrotation Yrotation Xrotation
				JOINT LeftFoot
				{
					OFFSET 0.438033 -32.635670 -3.012641
					CHANNELS 3 Zrotation Yrotation Xrotation
					JOINT LeftToeBase
					{
						OFFSET 0.970169 -13.225353 11.864223
						CHANNELS 3 Zrotation Yrotation Xrotation
						End Site
						{
							OFFSET 0.000000 0.000000 0.000000
						}
					}
				}
			}
		}
	}
	JOINT RightUpLeg_virtual
	{
		OFFSET 0.000000 0.000000 0.000000
		CHANNELS 3 Zrotation Yrotation Xrotation
		JOINT RightUpLeg
		{
			OFFSET -8.479694 -4.795517 -0.379053
			CHANNELS 3 Zrotation Yrotation Xrotation
			JOINT RightLeg
			{
				OFFSET -0.484100 -32.551483 0.112903
				CHANNELS 3 Zrotation Yrotation Xrotation
				JOINT RightFoot
				{
					OFFSET -0.438985 -32.635651 -3.012681
					CHANNELS 3 Zrotation Yrotation Xrotation
					JOINT RightToeBase
					{
						OFFSET -0.970169 -13.225354 11.864223
						CHANNELS 3 Zrotation Yrotation Xrotation
						End Site
						{
							OFFSET 0.000000 0.000000 0.000000
						}
					}
				}
			}
		}
	}
	JOINT Spine_virtual
	{
		OFFSET 0.000000 0.000000 0.000000
		CHANNELS 3 Zrotation Yrotation Xrotation
		JOINT Spine
		{
			OFFSET 0.000000 7.722015 1.166203
			CHANNELS 3 Zrotation Yrotation Xrotation
			JOINT Spine1
			{
				OFFSET 0.000000 12.024086 0.248766
				CHANNELS 3 Zrotation Yrotation Xrotation
				JOINT Spine2
				{
					OFFSET -0.000000 11.503036 -0.491240
					CHANNELS 3 Zrotation Yrotation Xrotation
					JOINT Neck_virtual
					{
						OFFSET 0.000000 0.000000 0.000000
						CHANNELS 3 Zrotation Yrotation Xrotation
						JOINT Neck
						{
							OFFSET 0.000000 18.430687 -3.123054
							CHANNELS 3 Zrotation Yrotation Xrotation
							JOINT Head
							{
								OFFSET -0.000000 9.051071 1.034021
								CHANNELS 3 Zrotation Yrotation Xrotation
								End Site
								{
									OFFSET 0.000000 0.000000 0.000000
								}
							}
						}
					}
					JOINT LeftShoulder_virtual
					{
						OFFSET 0.000000 0.000000 0.000000
						CHANNELS 3 Zrotation Yrotation Xrotation
						JOINT LeftShoulder
						{
							OFFSET 6.197824 13.665230 -4.064723
							CHANNELS 3 Zrotation Yrotation Xrotation
							JOINT LeftArm
							{
								OFFSET 7.778132 -0.187073 -1.709282
								CHANNELS 3 Zrotation Yrotation Xrotation
								JOINT LeftForeArm
								{
									OFFSET 21.954697 0.000000 -2.041093
									CHANNELS 3 Zrotation Yrotation Xrotation
									JOINT LeftHand
									{
										OFFSET 22.992908 0.000000 -0.870901
										CHANNELS 3 Zrotation Yrotation Xrotation
										End Site
										{
											OFFSET 0.000000 0.000000 0.000000
										}
									}
								}
							}
						}
					}
					JOINT RightShoulder_virtual
					{
						OFFSET 0.000000 0.000000 0.000000
						CHANNELS 3 Zrotation Yrotation Xrotation
						JOINT RightShoulder
						{
							OFFSET -6.197824 13.665230 -4.064723
							CHANNELS 3 Zrotation Yrotation Xrotation
							JOINT RightArm
							{
								OFFSET -7.778132 -0.187073 -1.709282
								CHANNELS 3 Zrotation Yrotation Xrotation
								JOINT RightForeArm
								{
									OFFSET -21.954697 0.000000 -2.041093
									CHANNELS 3 Zrotation Yrotation Xrotation
									JOINT RightHand
									{
										OFFSET -22.992908 0.000000 -0.870901
										CHANNELS 3 Zrotation Yrotation Xrotation
										End Site
										{
											OFFSET 0.000000 0.000000 0.000000
										}
									}
								}
							}
						}
					}
				}
			}
		}
	}
}
MOTION
Frames: 14
Frame Time: 0.033333
70.269875 82.106148 -7.757812 -179.895503 2.363075 179.963518 -4.385203 2.533228 10.204963 3.044078 -5.941331 -25.139498 6.646592 6.678717 23.238716 -7.190207 -6.722707 -2.927548 0.000000 0.000000 0.000000 -0.292378 2.177277 10.244408 -2.664537 -0.338939 -12.799749 -2.556572 1.870683 20.813458 11.087413 12.137128 -10.697682 0.000000 0.000000 0.000000 3.501660 4.158519 0.785346 -6.735676 -0.056716 -2.752103 0.177146 -3.718343 2.900898 0.014626 -0.010556 0.003773 -0.167340 -2.656367 4.146322 -1.087458 2.136736 -16.700062 0.000000 0.000000 0.000000 1.146507 -1.636447 1.395797 11.466046 2.776415 -8.104704 -14.301979 -3.449059 -32.301283 -7.898646 -17.396376 -6.104208 0.000000 0.000000 0.000000 -2.680848 -0.521235 0.905358 1.638647 -7.158724 -9.187840 22.812104 -16.800063 -39.316434 -0.194117 25.635110 -8.206611 0.000000 0.000000 0.000000 
70.254654 82.102959 -7.744533 -179.922797 2.320561 179.953450 -4.422594 2.658564 10.220174 3.042632 -6.013390 -25.198916 6.579327 6.814812 23.092376 -7.207577 -6.724163 -2.806817 0.000000 0.000000 0.000000 -0.308091 2.348409 10.320165 -2.699702 -0.149084 -12.827042 -2.448121 2.114935 20.870765 11.292050 12.388138 -10.998463 0.000000 0.000000 0.000000 3.419753 4.197198 0.876815 -6.731552 -0.059518 -2.759031 0.169000 -3.718151 2.877510 -0.022391 -0.020085 0.005200 -0.123440 -2.612279 4.134359 -1.063553 2.100462 -16.682450 0.000000 0.000000 0.000000 1.215302 -1.705647 1.373420 11.466820 2.798094 -8.115282 -14.305792 -3.419842 -32.324294 -7.868408 -17.415920 -6.052747 0.000000 0.000000 0.000000 -2.622928 -0.542768 0.898463 1.740875 -7.130685 -9.249843 22.711643 -16.731057 -39.111514 -0.160646 25.662359 -8.174662 0.000000 0.000000 0.000000 
70.241951 82.105171 -7.742651 -179.980758 2.275653 179.977015 -4.492886 2.720147 10.255483 3.083362 -6.144144 -25.288407 6.567524 6.774638 23.115491 -7.166777 -6.685682 -2.793044 0.000000 0.000000 0.000000 -0.337169 2.370757 10.390123 -2.724770 -0.226586 -12.918449 -2.419654 2.184160 20.881367 11.258085 12.322344 -11.013056 0.000000 0.000000 0.000000 3.300558 4.266506 0.971743 -6.745170 -0.030842 -2.774540 0.139548 -3.706943 2.866956 0.017922 -0.017165 -0.012825 -0.131823 -2.552121 4.148861 -0.996582 2.074077 -16.622635 0.000000 0.000000 0.000000 1.183770 -1.595239 1.429256 11.560134 2.542708 -8.139490 -14.294777 -3.280844 -32.335389 -7.800157 -17.535145 -5.981375 0.000000 0.000000 0.000000 -2.637638 -0.529211 0.924831 1.833692 -7.069042 -9.181225 22.615909 -16.679722 -38.940684 -0.130747 25.712225 -8.177605 0.000000 0.000000 0.000000 
70.229843 82.109749 -7.748224 -179.955172 2.297819 179.969296 -4.540093 2.784774 10.295755 3.153203 -6.200666 -25.360245 6.595335 6.761977 23.158224 -7.166483 -6.673074 -2.802205 0.000000 0.000000 0.000000 -0.322378 2.445675 10.447870 -2.696514 -0.234460 -12.984548 -2.431896 2.210988 20.927355 11.286534 12.238978 -10.994284 0.000000 0.000000 0.000000 3.248182 4.295940 1.058961 -6.687337 0.015778 -2.787972 0.168428 -3.686787 2.851690 -0.012763 -0.013825 -0.017322 -0.101646 -2.542757 4.118678 -0.851764 2.068352 -16.517125 0.000000 0.000000 0.000000 1.217943 -1.591720 1.395645 11.662229 2.359379 -8.087729 -14.262606 -3.087148 -32.287558 -7.715948 -17.754032 -5.860411 0.000000 0.000000 0.000000 -2.628969 -0.424431 0.838402 2.061268 -6.945492 -9.114428 22.438508 -16.784406 -38.783378 -0.062929 25.810660 -8.099843 0.000000 0.000000 0.000000 
70.211563 82.115227 -7.771379 -179.900421 2.298115 179.970908 -4.559708 2.754527 10.280332 3.219613 -6.201664 -25.396409 6.659062 6.800991 23.213858 -7.208047 -6.690607 -2.846390 0.000000 0.000000 0.000000 -0.281100 2.492362 10.466344 -2.637514 -0.114288 -13.037331 -2.518162 2.163401 21.007355 11.388992 12.146965 -10.977458 0.000000 0.000000 0.000000 3.194354 4.287157 1.090813 -6.598133 0.073104 -2.806698 0.208675 -3.652930 2.842992 0.010527 -0.003303 -0.018944 -0.139378 -2.553601 4.057238 -0.705987 2.036172 -16.390419 0.000000 0.000000 0.000000 1.159083 -1.551650 1.368156 11.781905 2.133250 -8.044735 -14.257008 -2.871848 -32.436254 -7.620228 -17.996876 -5.686518 0.000000 0.000000 0.000000 -2.692349 -0.410130 0.868952 2.262620 -6.910809 -9.038455 22.275742 -16.747658 -38.686827 -0.061765 26.045282 -8.096143 0.000000 0.000000 0.000000 
70.186295 82.113281 -7.812561 179.997054 2.247036 -179.962507 -4.694038 2.658716 10.176945 3.251507 -6.405161 -25.366841 6.695833 6.888610 23.363391 -7.141518 -6.636408 -2.921335 0.000000 0.000000 0.000000 -0.372424 2.500376 10.412881 -2.659150 -0.066532 -13.119564 -2.582303 2.176299 21.180598 11.409156 12.023949 -11.017514 0.000000 0.000000 0.000000 3.077952 4.261096 1.046786 -6.541887 0.110765 -2.811088 0.193650 -3.627053 2.860876 -0.008377 -0.016549 0.023863 -0.071978 -2.442670 4.004978 -0.523202 2.018972 -16.124318 0.000000 0.000000 0.000000 1.211597 -1.559983 1.317752 11.875155 1.822122 -7.922763 -14.292952 -2.586295 -32.496742 -7.450519 -18.332784 -5.471236 0.000000 0.000000 0.000000 -2.626728 -0.416954 0.806406 2.433872 -6.917580 -9.143529 22.174609 -16.964844 -38.725704 0.071725 26.363026 -7.880042 0.000000 0.000000 0.000000 
70.164612 82.118500 -7.872179 -179.984541 2.314094 -179.878236 -4.708303 2.582033 10.104337 3.284352 -6.461376 -25.338221 6.749103 7.065238 23.417761 -7.141290 -6.625191 -2.981809 0.000000 0.000000 0.000000 -0.279944 2.509224 10.375881 -2.686560 -0.038303 -13.169070 -2.703877 2.182860 21.353287 11.599479 12.015219 -11.016194 0.000000 0.000000 0.000000 3.040252 4.240837 0.968932 -6.415519 0.158476 -2.844394 0.239577 -3.596247 2.840603 0.042872 -0.020361 -0.034824 -0.114184 -2.469619 4.062875 -0.375019 1.975709 -15.855818 0.000000 0.000000 0.000000 1.133278 -1.531744 1.390883 11.832773 1.538142 -7.981821 -14.372272 -2.231087 -32.301641 -7.237440 -18.618093 -5.320682 0.000000 0.000000 0.000000 -2.705496 -0.393981 0.919217 2.688917 -6.934267 -9.195298 22.062908 -17.129862 -38.823629 0.123303 26.787187 -7.780798 0.000000 0.000000 0.000000 
70.149971 82.113365 -7.937661 179.998489 2.401384 -179.926949 -4.722008 2.569125 10.113353 3.321375 -6.568734 -25.248424 6.790666 7.198424 23.531578 -7.075527 -6.575330 -3.087603 0.000000 0.000000 0.000000 -0.346271 2.500995 10.386916 -2.629682 0.203396 -13.172419 -2.681404 2.210259 21.547550 11.596091 11.850102 -11.029394 0.000000 0.000000 0.000000 3.031198 4.209916 0.930571 -6.239871 0.225499 -2.801465 0.201201 -3.533186 2.903863 -0.015107 -0.011117 0.029360 -0.034480 -2.403358 3.931639 -0.271941 1.793386 -15.470343 0.000000 0.000000 0.000000 1.185134 -1.464109 1.299692 11.752166 1.168488 -7.813544 -14.518913 -1.956059 -32.401946 -7.056498 -18.884747 -5.009262 0.000000 0.000000 0.000000 -2.618588 -0.363732 0.808341 3.007525 -6.923039 -9.052000 22.016085 -17.270475 -38.942225 0.070988 27.241861 -7.705319 0.000000 0.000000 0.000000 
70.143982 82.108192 -8.009917 -179.936334 2.537880 -179.845451 -4.692112 2.466413 10.081311 3.374088 -6.588438 -25.291535 6.855160 7.363993 23.674890 -7.061902 -6.581641 -3.229739 0.000000 0.000000 0.000000 -0.310109 2.503315 10.315401 -2.632596 0.246898 -13.262971 -2.716004 2.364007 21.747297 11.596089 11.768641 -11.056605 0.000000 0.000000 0.000000 3.077869 4.143822 0.793217 -5.995358 0.285111 -2.829750 0.174352 -3.463363 2.930261 -0.034878 0.000010 0.030442 -0.017173 -2.322081 3.934053 -0.202877 1.642996 -15.057184 0.000000 0.000000 0.000000 1.173341 -1.422621 1.359381 11.552855 0.810832 -7.857789 -14.698191 -1.671136 -32.239149 -6.855409 -19.142338 -4.766815 0.000000 0.000000 0.000000 -2.603679 -0.356539 0.808393 3.334070 -6.908054 -9.064904 21.991850 -17.501854 -39.117275 0.079321 27.718185 -7.566569 0.000000 0.000000 0.000000 
70.165611 82.097366 -8.064316 -179.903549 2.557532 -179.889383 -4.691122 2.308643 10.134512 3.431037 -6.707182 -25.306198 6.911551 7.437892 23.878888 -7.000349 -6.566709 -3.360107 0.000000 0.000000 0.000000 -0.227789 2.375862 10.314637 -2.677749 0.425499 -13.325833 -2.705762 2.385276 21.984473 11.660597 11.676180 -11.134715 0.000000 0.000000 0.000000 3.107898 4.141030 0.769426 -5.734920 0.275413 -2.798261 0.192434 -3.446869 2.963173 0.002638 -0.056677 0.037394 -0.076279 -2.351410 3.897761 -0.206284 1.416597 -14.541662 0.000000 0.000000 0.000000 1.083648 -1.368649 1.363521 11.285964 0.484984 -7.764208 -14.989610 -1.314961 -32.045742 -6.538988 -19.504508 -4.526497 0.000000 0.000000 0.000000 -2.699619 -0.291451 0.797091 3.670808 -6.822801 -8.809385 22.097016 -17.651657 -39.403389 -0.053325 28.357772 -7.578506 0.000000 0.000000 0.000000 
70.235992 82.076454 -8.105652 179.998120 2.724278 -179.944284 -4.750050 2.246192 10.192849 3.503632 -6.914152 -25.374168 6.971470 7.539447 24.076518 -6.841211 -6.470475 -3.487698 0.000000 0.000000 0.000000 -0.342624 2.368093 10.283575 -2.634772 0.709851 -13.435873 -2.653236 2.362296 22.243455 11.585156 11.601972 -11.223290 0.000000 0.000000 0.000000 3.060979 3.892250 0.719972 -5.504621 0.350491 -2.772787 0.131914 -3.326580 3.015164 -0.004911 -0.023147 0.038745 -0.063328 -2.162581 3.888411 -0.305401 1.177119 -13.907182 0.000000 0.000000 0.000000 1.111317 -1.240032 1.346087 10.920024 0.191353 -7.583039 -15.487971 -0.866551 -31.676659 -6.125936 -20.179401 -4.269541 0.000000 0.000000 0.000000 -2.657269 -0.159686 0.838488 4.028252 -6.730081 -8.612373 22.276414 -17.749293 -39.555702 -0.161675 29.329235 -7.506191 0.000000 0.000000 0.000000 
70.375847 82.054024 -8.120442 179.975047 2.789683 -179.922359 -4.775696 2.180291 10.219828 3.676577 -7.184850 -25.474898 6.959018 7.464300 24.313585 -6.654527 -6.342946 -3.622436 0.000000 0.000000 0.000000 -0.353115 2.326304 10.272044 -2.564183 0.811776 -13.543228 -2.605986 2.338518 22.544383 11.481997 11.556356 -11.313912 0.000000 0.000000 0.000000 3.070443 3.800500 0.689354 -5.222530 0.366587 -2.768353 0.113367 -3.241165 3.075875 -0.018695 -0.027992 0.045528 -0.094346 -2.144866 3.937980 -0.472640 0.931493 -13.210190 0.000000 0.000000 0.000000 1.063810 -1.141962 1.396541 10.505804 -0.027066 -7.393403 -16.309004 -0.426008 -31.174677 -5.690273 -21.295840 -4.032907 0.000000 0.000000 0.000000 -2.703967 -0.028085 0.842283 4.572503 -6.641447 -8.289989 22.762206 -17.941445 -39.458180 -0.411834 30.846166 -7.572856 0.000000 0.000000 0.000000 
70.616768 82.021278 -8.111834 179.987437 2.845417 -179.926580 -4.718956 2.073221 10.213418 3.886195 -7.425873 -25.552533 7.076356 7.569565 24.548557 -6.664121 -6.415406 -3.746374 0.000000 0.000000 0.000000 -0.351344 2.352402 10.230886 -2.406582 0.935296 -13.674248 -2.555991 2.237217 22.867719 11.316782 11.501541 -11.463511 0.000000 0.000000 0.000000 3.099902 3.816532 0.661057 -4.927968 0.427350 -2.748979 0.064973 -3.078362 3.182662 -0.031418 0.039063 0.028664 -0.084360 -1.939988 4.000220 -0.720077 0.763601 -12.489639 0.000000 0.000000 0.000000 1.081114 -1.156227 1.579365 9.953749 -0.335150 -7.192824 -17.515508 -0.122386 -30.361072 -5.211903 -22.977928 -3.600223 0.000000 0.000000 0.000000 -2.697881 -0.048909 0.869660 5.075131 -6.706251 -7.958507 23.801539 -18.075092 -39.030395 -0.700552 33.079542 -7.645692 0.000000 0.000000 0.000000 
70.965614 81.990578 -8.095679 179.957180 2.817190 -179.920037 -4.706189 2.021254 10.106441 4.112932 -7.641023 -25.561447 7.070918 7.206399 24.768105 -6.573862 -6.356357 -3.925421 0.000000 0.000000 0.000000 -0.365462 2.323697 10.187982 -2.172904 1.069533 -13.762776 -2.481443 2.017839 23.155991 11.090404 11.464172 -11.614580 0.000000 0.000000 0.000000 3.089273 3.737270 0.638399 -4.659541 0.321514 -2.694614 0.051738 -3.043732 3.350551 -0.025690 -0.012129 0.032594 -0.086940 -1.850896 4.177345 -1.081280 0.464396 -11.596528 0.000000 0.000000 0.000000 1.141938 -1.005660 1.625495 9.236829 -0.422535 -6.959404 -19.332523 0.316018 -28.839179 -4.530815 -25.265346 -3.291532 0.000000 0.000000 0.000000 -2.655913 0.136270 1.014977 5.831528 -6.650826 -7.768389 25.149037 -18.284705 -38.195627 -0.881751 35.960389 -7.562678 0.000000 0.000000 0.000000 
